<svg xmlns="http://www.w3.org/2000/svg" viewBox="0 0 100 100"><defs><style>.cls-1{fill:#f3cc30;}.cls-2{fill:#f7db5e;}.cls-3{fill:#edbd31;}</style></defs><g id="katman_2" data-name="katman 2"><g id="Object"><path class="cls-1" d="M339.5,5.9l93.77,190a10.57,10.57,0,0,0,8,5.8l209.68,30.47a10.58,10.58,0,0,1,5.87,18.06L505.07,398.13A10.57,10.57,0,0,0,502,407.5l35.82,208.83a10.6,10.6,0,0,1-15.37,11.17L334.93,528.9a10.61,10.61,0,0,0-9.86,0L137.53,627.5a10.6,10.6,0,0,1-15.37-11.17L158,407.5a10.57,10.57,0,0,0-3-9.37L3.21,250.23a10.58,10.58,0,0,1,5.87-18.06L218.76,201.7a10.57,10.57,0,0,0,8-5.8L320.5,5.9A10.6,10.6,0,0,1,339.5,5.9Z"/><path class="cls-2" d="M330,49.79,246.44,211.65a28,28,0,0,1-22.32,15L42.69,243.23l191.69,9A28,28,0,0,0,261.92,234Z"/><path class="cls-3" d="M126.28,592.3l-4.12,24a10.6,10.6,0,0,0,15.37,11.17l187.54-98.6a10.61,10.61,0,0,1,9.86,0l187.54,98.6a10.6,10.6,0,0,0,15.37-11.17L502,407.5a10.57,10.57,0,0,1,3.05-9.37l151.72-147.9a10.58,10.58,0,0,0-5.87-18.06L580.69,222C467.1,425.81,293.16,533.14,126.28,592.3Z"/></g></g></svg>